<svg width="22" height="20" viewBox="0 0 22 20" fill="none" xmlns="http://www.w3.org/2000/svg">
<path d="M8.28501 18.9312L1.04692 11.3121C0.697204 10.9446 0.523109 10.4728 0.523109 10.0004C0.523109 9.52789 0.697204 9.05618 1.04692 8.68861L8.28502 1.06956C9.00973 0.306894 10.2151 0.275656 10.9784 1.00037C11.7374 1.7258 11.7702 2.93266 11.0469 3.69308L6.86501 8.09561L19.9517 8.09561C21.0038 8.09561 21.8564 8.94827 21.8564 10.0004C21.8564 11.0525 21.0038 11.9051 19.9517 11.9051L6.86501 11.9051L11.0469 16.3077C11.7702 17.0688 11.7389 18.2757 10.9784 19.0004C10.2151 19.725 9.00973 19.6938 8.28501 18.9312Z" fill="#22272D"/>
</svg>
