<svg width="55" height="35" viewBox="23 10 55 35" fill="none" xmlns="http://www.w3.org/2000/svg">
<path d="M49.9999 20.3333C49.9999 19.7792 50.4458 19.3333 50.9999 19.3333C51.5541 19.3333 51.9999 19.7792 51.9999 20.3333V25.4667L55.5541 27.8333C56.0124 28.1417 56.1374 28.7625 55.7958 29.2208C55.5249 29.6792 54.9041 29.8042 54.4458 29.4625L50.4458 26.7958C50.1666 26.6458 49.9999 26.3333 49.9999 25.9625V20.3333ZM50.9999 15.3333C56.8916 15.3333 61.6666 20.1083 61.6666 26C61.6666 31.8917 56.8916 36.6667 50.9999 36.6667C45.1083 36.6667 40.3333 31.8917 40.3333 26C40.3333 20.1083 45.1083 15.3333 50.9999 15.3333ZM42.3333 26C42.3333 30.7875 46.2124 34.6667 50.9999 34.6667C55.7874 34.6667 59.6666 30.7875 59.6666 26C59.6666 21.2125 55.7874 17.3333 50.9999 17.3333C46.2124 17.3333 42.3333 21.2125 42.3333 26Z" />
<path d="M58.3982 31.5005L58.3971 31.5005L58.3982 31.5005ZM54.2929 29.2929C52.2453 31.3405 52.2453 34.6595 54.2929 36.7071C56.3404 38.7547 59.6595 38.7547 61.7071 36.7071C63.7546 34.6595 63.7546 31.3405 61.7071 29.2929C59.6595 27.2453 56.3404 27.2453 54.2929 29.2929Z"  stroke="white" stroke-width="2"/>
</svg>








