<svg width="22" height="22" viewBox="0 0 22 22" fill="none" xmlns="http://www.w3.org/2000/svg">
<path d="M14.3372 7.62516C13.9465 7.23454 13.3138 7.23454 12.923 7.62516L10.9997 9.58766L9.00384 7.62516C8.61322 7.23454 7.98051 7.23454 7.58967 7.62516C7.19884 8.01579 7.19905 8.6485 7.58967 9.03933L9.54926 10.9989L7.62467 12.9585C7.23405 13.3491 7.23405 13.9818 7.62467 14.3727C8.01522 14.7632 8.64801 14.7635 9.03884 14.3727L10.9997 12.4127L12.9593 14.3722C13.3498 14.7628 13.9826 14.7631 14.3734 14.3722C14.764 13.9816 14.764 13.3489 14.3734 12.9581L12.4138 10.9985L14.3734 9.03891C14.7622 8.65016 14.7622 8.01683 14.3372 7.62516ZM10.9997 0.333496C5.10801 0.333496 0.333008 5.1085 0.333008 11.0002C0.333008 16.8918 5.10801 21.6668 10.9997 21.6668C16.8913 21.6668 21.6663 16.8918 21.6663 11.0002C21.6663 5.1085 16.8913 0.333496 10.9997 0.333496ZM10.9997 19.6668C6.22051 19.6668 2.33301 15.7789 2.33301 11.0002C2.33301 6.22141 6.22051 2.3335 10.9997 2.3335C15.7788 2.3335 19.6663 6.22141 19.6663 11.0002C19.6663 15.7789 15.7788 19.6668 10.9997 19.6668Z" fill="#737D86"/>
</svg>
