<svg width="19" height="16" viewBox="0 0 19 16" fill="none" xmlns="http://www.w3.org/2000/svg">
<path d="M18.0809 13.75L10.463 0.75C9.87984 -0.25 8.40805 -0.25 7.82091 0.75L0.20662 13.75C-0.379452 14.7464 0.350513 16 1.52519 16H16.7609C17.9309 16 18.663 14.75 18.0809 13.75ZM8.28448 4.85714C8.28448 4.38393 8.66841 4 9.14162 4C9.61483 4 9.99876 4.38571 9.99876 4.85714V9.42857C9.99876 9.90179 9.61483 10.2857 9.17376 10.2857C8.73269 10.2857 8.28448 9.90357 8.28448 9.42857V4.85714ZM9.14162 13.7143C8.52162 13.7143 8.01876 13.2114 8.01876 12.5914C8.01876 11.9714 8.52126 11.4686 9.14162 11.4686C9.76198 11.4686 10.2645 11.9714 10.2645 12.5914C10.263 13.2107 9.76305 13.7143 9.14162 13.7143Z" fill="#FF3541"/>
</svg>
