<svg xmlns="http://www.w3.org/2000/svg" width="24.492" height="24.495" viewBox="0 0 24.492 24.495">
  <path id="Caminho_346" data-name="Caminho 346" d="M575.32,204.176l-9.766-9.766a2.482,2.482,0,0,0-3.511,0l-9.77,9.77a2.487,2.487,0,0,0,0,3.506,2.462,2.462,0,0,0,1.633.723c.031,0,.063,0,.095,0h.11v6.906a2.862,2.862,0,0,0,2.859,2.858h3.82a.982.982,0,0,0,.981-.981v-5.633a.9.9,0,0,1,.9-.9h2.253a.9.9,0,0,1,.9.9V217.2a.982.982,0,0,0,.981.981h3.82a2.862,2.862,0,0,0,2.858-2.858v-6.906h.082a2.483,2.483,0,0,0,1.757-4.237Zm-21.808,1.754a.519.519,0,0,1,.154-.37l9.764-9.764a.533.533,0,0,1,.737,0l9.766,9.765a.522.522,0,0,1-.37.891H572.5a.982.982,0,0,0-.981.98v7.887a.9.9,0,0,1-.9.9h-2.84v-4.653a2.862,2.862,0,0,0-2.859-2.859h-2.253a2.862,2.862,0,0,0-2.859,2.859v4.653h-2.84a.9.9,0,0,1-.9-.9v-7.887a.981.981,0,0,0-.981-.98h-1.027l-.045,0a.519.519,0,0,1-.512-.521Zm.507.8Z" transform="translate(-551.552 -193.683)"/>
</svg>
