<svg width="22" height="20" viewBox="0 0 22 20" fill="none" xmlns="http://www.w3.org/2000/svg">
<path d="M19.2962 0.666504H2.70362C1.39436 0.666504 0.333252 1.72762 0.333252 3.03687V13.7035C0.333252 15.0128 1.39436 16.0739 2.70362 16.0739H8.19621L7.84066 17.8517H5.96288C5.47399 17.8517 5.07399 18.2517 5.07399 18.7406C5.07399 19.2295 5.47399 19.6295 5.96288 19.6295H16.037C16.5277 19.6295 16.9258 19.2313 16.9258 18.7406C16.9258 18.2498 16.5277 17.8517 16.037 17.8517H14.1581L13.8036 16.0739H19.2962C20.6055 16.0739 21.6666 15.0128 21.6666 13.7035V3.03687C21.6666 1.72762 20.6036 0.666504 19.2962 0.666504ZM9.65547 17.8517L10.011 16.0739H11.991L12.3466 17.8517H9.65547ZM19.8888 13.7035C19.8888 14.0303 19.623 14.2961 19.2962 14.2961H2.70362C2.37688 14.2961 2.11103 14.0303 2.11103 13.7035V3.03687C2.11103 2.71013 2.37688 2.44428 2.70362 2.44428H19.2962C19.623 2.44428 19.8888 2.71013 19.8888 3.03687V13.7035ZM13.7444 5.77391C13.455 5.48458 12.9862 5.48458 12.697 5.77391C12.4077 6.06324 12.4076 6.53317 12.697 6.82243L13.951 8.07576L12.697 9.3291C12.4076 9.61843 12.4076 10.0884 12.697 10.3776C12.8444 10.5221 13.0333 10.5924 13.2221 10.5924C13.411 10.5924 13.601 10.5207 13.7458 10.376L15.5236 8.59821C15.813 8.30887 15.813 7.83895 15.5236 7.54969L13.7444 5.77391ZM9.29992 5.77391C9.01058 5.48458 8.54177 5.48458 8.25251 5.77391L6.47473 7.55169C6.1854 7.84102 6.1854 8.31095 6.47473 8.60021L8.25251 10.378C8.39992 10.5221 8.58881 10.5924 8.7777 10.5924C8.96658 10.5924 9.15547 10.5221 9.29992 10.3776C9.58925 10.0883 9.58925 9.61836 9.29992 9.3291L8.04807 8.07391L9.29992 6.82206C9.55918 6.53317 9.55918 6.0628 9.29992 5.77391Z" fill="#22272D"/>
</svg>
