<svg width="17" height="22" viewBox="0 0 17 22" fill="none" xmlns="http://www.w3.org/2000/svg">
<path d="M15.5832 4.22433L12.3996 1.11433C11.8847 0.614413 11.1894 0.333496 10.4685 0.333496H2.73016C1.22217 0.333496 0 1.52725 0 3.00016L0.000277282 19.0002C0.000277282 20.4727 1.22245 21.6668 2.73044 21.6668H13.6508C15.1524 21.6668 16.381 20.4668 16.381 19.0002V6.1085C16.381 5.40433 16.0951 4.72516 15.5832 4.22433ZM14.3333 19.0002C14.3333 19.3683 14.0277 19.6668 13.6508 19.6668H2.73101C2.35399 19.6668 2.04847 19.3683 2.04847 19.0002L2.04762 3.00558C2.04762 2.63741 2.35323 2.33891 2.73016 2.33891H9.55556V5.66683C9.55556 6.40308 10.1669 7.00016 10.9206 7.00016H14.2949V19.0002H14.3333ZM4.05599 15.371C3.97259 15.4524 3.91577 15.5562 3.89261 15.6692L3.41867 17.9833C3.37693 18.1873 3.56115 18.3673 3.77001 18.3264L6.1397 17.8635C6.25526 17.8409 6.3614 17.7855 6.4448 17.704L10.6091 13.6373L8.21983 11.3036L4.05599 15.371ZM9.18442 10.3627L11.5737 12.6964L12.618 11.6764C13.0847 11.221 13.0847 10.4822 12.6181 10.0264L11.9188 9.34183C11.4526 8.88641 10.6963 8.88641 10.2296 9.34183L9.18442 10.3627Z" fill="#22272D"/>
</svg>
