<svg xmlns="http://www.w3.org/2000/svg" width="22.72" height="22.581" viewBox="0 0 22.72 22.581"><defs></defs><g transform="translate(3.842 20.911)"><rect class="a" width="14.701" height="1.671"/></g><g transform="translate(7.852 7.462)"><path class="a" d="M182.927,169.726h-5.151a.835.835,0,1,0,0,1.671h5.151a.835.835,0,1,0,0-1.671Z" transform="translate(-176.941 -169.726)"/></g><g transform="translate(7.852 11.36)"><path class="a" d="M186.825,257.569h-9.049a.835.835,0,1,0,0,1.671h9.049a.835.835,0,0,0,0-1.671Z" transform="translate(-176.941 -257.569)"/></g><g transform="translate(0 0)"><g transform="translate(0 0)"><path class="a" d="M22.228,1.669a.836.836,0,0,0-.9.136L18.992,3.874,16.65,1.78a.835.835,0,0,0-1.114,0L13.2,3.872,10.859,1.78a.835.835,0,0,0-1.113,0L7.4,3.874,5.064,1.805a.835.835,0,0,0-1.389.626V17.3H.835A.835.835,0,0,0,0,18.135v2.033a3.986,3.986,0,0,0,3.982,3.982V22.478a2.314,2.314,0,0,1-2.311-2.311v-1.2H14.757v1.2a3.982,3.982,0,1,0,7.963,0V2.431A.835.835,0,0,0,22.228,1.669Zm-1.178,18.5a2.311,2.311,0,0,1-4.622,0V18.135a.835.835,0,0,0-.835-.835H5.346V4.285L6.853,5.618a.835.835,0,0,0,1.11,0L10.3,3.524l2.339,2.091a.835.835,0,0,0,1.114,0l2.339-2.092,2.339,2.092a.836.836,0,0,0,1.11,0L21.05,4.285Z" transform="translate(0 -1.568)"/></g></g></svg>