<svg xmlns="http://www.w3.org/2000/svg" width="19.617" height="23.101" viewBox="0 0 19.617 23.101"><g transform="translate(-914.396 -194.683)"><path d="M933.988,243.88h0a18.288,18.288,0,0,0-.535-2.807,8.775,8.775,0,0,0-2.271-3.677,1.031,1.031,0,0,0-1.51-.094,1.015,1.015,0,0,0,.063,1.508l.1.109c.046.048.092.1.136.145a7.814,7.814,0,0,1,2.006,4.8,1.171,1.171,0,0,1-.587,1.208l-.064.037a9.14,9.14,0,0,1-1.789.87,17.934,17.934,0,0,1-10.089.169,11.727,11.727,0,0,1-2.226-.937,1.4,1.4,0,0,1-.769-1.579,7.923,7.923,0,0,1,2.125-4.71,1.362,1.362,0,0,0,.435-.957.924.924,0,0,0-.315-.653c-.276-.254-.852-.563-1.6.225a9.25,9.25,0,0,0-2.428,4.531c-.53,2.573-.653,4.1,2.969,5.6a16.922,16.922,0,0,0,6.342,1.127,20.512,20.512,0,0,0,5.438-.665,9.177,9.177,0,0,0,3.323-1.552A2.878,2.878,0,0,0,933.988,243.88Z" transform="translate(0 -31.018)"/><path d="M933.861,207.242h.03a6.283,6.283,0,0,0,4.453-1.834,6.172,6.172,0,0,0,1.845-4.386,6.3,6.3,0,0,0-1.817-4.478,6.207,6.207,0,0,0-4.434-1.861h-.02a6.278,6.278,0,0,0-4.458,10.708A6.188,6.188,0,0,0,933.861,207.242Zm-4.2-6.321a4.252,4.252,0,0,1,4.259-4.21h.021a4.258,4.258,0,0,1,4.224,4.269,4.261,4.261,0,0,1-4.268,4.235h-.037A4.26,4.26,0,0,1,929.659,200.921Z" transform="translate(-9.697)"/></g></svg>