<svg id="___Icons_ic_replace" data-name="__🥬Icons/ ic_replace" xmlns="http://www.w3.org/2000/svg" width="20" height="20" viewBox="0 0 20 20">
  <g id="_gr" data-name="#gr">
    <rect id="Rectangle" width="20" height="20" opacity="0"/>
    <path id="Shape" d="M7.632,16.667q-.07,0-.139,0l-.139,0A3.191,3.191,0,0,1,4.16,13.614v-.282h-2.8a1.367,1.367,0,0,1-.967-2.325L1.893,9.5V5.605A5.616,5.616,0,0,1,8.241.048a5.715,5.715,0,0,1,4.851,5.733V9.5l1.5,1.509a1.366,1.366,0,0,1-.967,2.325h-2.8v.282A3.194,3.194,0,0,1,7.632,16.667ZM5.825,13.331v.282A1.566,1.566,0,0,0,7.379,15c.038,0,.076,0,.114,0H7.5c.036,0,.071,0,.108,0a1.563,1.563,0,0,0,1.552-1.387v-.282Z" transform="translate(2.508 1.669)"/>
  </g>
</svg>
