<svg xmlns="http://www.w3.org/2000/svg" width="4.036" height="16.143" viewBox="0 0 4.036 16.143">
  <g id="ellipsis_3_" data-name="ellipsis (3)" transform="translate(0 16.143) rotate(-90)">
    <path id="Caminho_1" data-name="Caminho 1" d="M4.036,2.018A2.018,2.018,0,1,1,2.018,0,2.018,2.018,0,0,1,4.036,2.018Zm0,0" transform="translate(6.053)" />
    <path id="Caminho_2" data-name="Caminho 2" d="M4.036,2.018A2.018,2.018,0,1,1,2.018,0,2.018,2.018,0,0,1,4.036,2.018Zm0,0" />
    <path id="Caminho_3" data-name="Caminho 3" d="M4.036,2.018A2.018,2.018,0,1,1,2.018,0,2.018,2.018,0,0,1,4.036,2.018Zm0,0" transform="translate(12.107)"/>
  </g>
</svg>
