<svg xmlns="http://www.w3.org/2000/svg" width="26.517" height="23.101" viewBox="0 0 26.517 23.101"><defs></defs><g transform="translate(-1172.708 -194.683)"><path class="a" d="M1198.872,213.887c-.485-.915-1-1.814-1.482-2.731a1.566,1.566,0,0,1-.171-.664c-.012-.434-.009-.867-.008-1.3h0v-.123q0-.186,0-.372v-6.512h0q0-3.093,0-6.186c0-.972-.347-1.311-1.33-1.312l-12.393,0q-3.751,0-7.5.005a1.03,1.03,0,0,0-1.161,1.141c0,.138,0,.276,0,.415,0,4.628.005,9.257-.011,13.885a2.244,2.244,0,0,1-.254.972c-.483.947-1.028,1.862-1.51,2.809a2.949,2.949,0,0,0-.333,1.1,2.594,2.594,0,0,0,2.682,2.774c3.523.008,7.046,0,10.569,0s7.046.006,10.569,0A2.572,2.572,0,0,0,1198.872,213.887Zm-21.976-16.7c0-.323.1-.426.424-.426q8.7.012,17.408,0c.345,0,.412.13.409.437-.012,1.4-.006,2.791,0,4.186,0,.271,0,.542,0,.813v6.316c-.006.374-.008.747.009,1.12.014.312-.1.4-.4.4q-8.725-.014-17.449,0c-.316,0-.4-.1-.4-.406Q1176.907,203.4,1176.9,197.183Zm19.668,18.517q-3.376.012-6.752-.006a.426.426,0,0,1-.312-.225,1.1,1.1,0,0,0-1.126-.74c-1.533,0-3.066.02-4.6-.007-.734-.013-1.288.166-1.468.98h-1.464c-1.767,0-3.535,0-5.3,0-.72,0-.928-.348-.59-.97.415-.764.842-1.521,1.245-2.291a.564.564,0,0,1,.574-.352q8.409.015,16.818.009c.552,0,1.105-.018,1.656.01a.582.582,0,0,1,.412.242c.482.837.943,1.686,1.4,2.539C1197.291,215.337,1197.074,215.7,1196.563,215.7Z"/><path class="a" d="M1197.633,234.094a1.732,1.732,0,0,0,2.462-.1c.737-.837,1.41-1.732,2.086-2.62a.932.932,0,0,0,.022-1.093.865.865,0,0,0-.933-.478,1.639,1.639,0,0,0-.823.463c-.572.647-1.086,1.345-1.681,2.1-.314-.341-.577-.659-.874-.941a1.029,1.029,0,0,0-1.477,1.433A17.075,17.075,0,0,0,1197.633,234.094Z" transform="translate(-17.169 -25.721)"/><path class="a" d="M1197.621,212.172a1.716,1.716,0,0,0,2.432-.051c.763-.851,1.452-1.77,2.143-2.683a.97.97,0,0,0-.1-1.225.981.981,0,0,0-1.168-.256,1.576,1.576,0,0,0-.5.418c-.541.659-1.065,1.332-1.627,2.041-.34-.345-.618-.652-.923-.929a1.029,1.029,0,0,0-1.467,1.44A17.069,17.069,0,0,0,1197.621,212.172Z" transform="translate(-17.17 -9.657)"/><path class="a" d="M1230.006,236.341q-2.131-.01-4.262,0a1.037,1.037,0,1,0,.018,2.07c.7.006,1.407,0,2.11,0s1.407,0,2.11,0a1.039,1.039,0,1,0,.023-2.071Z" transform="translate(-38.059 -30.52)"/><path class="a" d="M1225.771,216.463c.69.007,1.38,0,2.069,0,.717,0,1.435.006,2.152,0a1.033,1.033,0,0,0,1.113-1.024,1.047,1.047,0,0,0-1.1-1.047q-2.132-.021-4.263,0a1.04,1.04,0,1,0,.031,2.072Z" transform="translate(-38.043 -14.432)"/></g></svg>