<svg xmlns="http://www.w3.org/2000/svg" width="21.966" height="21.941" viewBox="0 0 21.966 21.941"><defs></defs><g transform="translate(-671.296 -194.275)"><path class="a" d="M693.007,204.605a1.085,1.085,0,0,0-.807-.266q-1.575,0-3.15,0H683.2v-8.912a1.2,1.2,0,0,0-.284-.928,1.15,1.15,0,0,0-.912-.218,14.721,14.721,0,0,0-2.125.275,10.964,10.964,0,0,0,2.392,21.66,11.385,11.385,0,0,0,2.479-.276,11.116,11.116,0,0,0,8.518-10.54A1.063,1.063,0,0,0,693.007,204.605Zm-1.763,1.549a9.076,9.076,0,1,1-9.864-9.883V205c0,.84.314,1.153,1.156,1.153Z" transform="translate(0 0)"/><path class="a" d="M722.668,204.588q1.212,0,2.424,0h.837l1.218,0h1.03q.73,0,1.461,0a1.014,1.014,0,0,0,.843-.369.957.957,0,0,0,.106-.865,10.977,10.977,0,0,0-7.7-7.747,1,1,0,0,0-.924.1,1.037,1.037,0,0,0-.369.893q0,3.467,0,6.934C721.6,204.251,721.94,204.587,722.668,204.588Zm.772-1.833v-4.8c1.566.353,4.194,2.991,4.776,4.8Z" transform="translate(-37.701 -0.951)"/></g></svg>