<svg xmlns="http://www.w3.org/2000/svg" width="17.573" height="17.008" viewBox="0 0 17.573 17.008"><defs></defs><path class="a" d="M15.652,16.008a.965.965,0,0,1-.658-.26l-3.117-3.023a7.522,7.522,0,0,1-4.513,1.5A7.249,7.249,0,0,1,0,7.116,7.252,7.252,0,0,1,7.364,0a7.252,7.252,0,0,1,7.365,7.116,6.913,6.913,0,0,1-1.556,4.352L16.3,14.482a.878.878,0,0,1,0,1.266A.961.961,0,0,1,15.652,16.008ZM7.364,1.782A5.437,5.437,0,0,0,1.84,7.116a5.435,5.435,0,0,0,5.524,5.33,5.435,5.435,0,0,0,5.524-5.33A5.437,5.437,0,0,0,7.364,1.782Z" transform="translate(0.5 0.5)"/></svg>