<svg xmlns="http://www.w3.org/2000/svg" width="25.116" height="21.952" viewBox="0 0 25.116 21.952"><defs></defs><g transform="translate(0 -32.247)"><g transform="translate(0 45.766)"><g transform="translate(0 0)"><path class="a" d="M22.137,314.166H4.217a2.108,2.108,0,1,1,0-4.217H6.325a1.054,1.054,0,0,0,0-2.108H4.217a4.217,4.217,0,0,0,0,8.433H22.137a1.054,1.054,0,0,0,0-2.108Z" transform="translate(0 -307.841)"/></g></g><g transform="translate(9.487 32.247)"><g transform="translate(0 0)"><path class="a" d="M207.86,33.426a4.045,4.045,0,0,0-5.708,0l-1.613,1.613c-.02.017-.044.023-.063.042s-.025.043-.042.063l-5.409,5.409a5.493,5.493,0,0,0-1.615,3.906V46.82a1.055,1.055,0,0,0,1.054,1.054h2.361a5.5,5.5,0,0,0,3.908-1.616l7.126-7.126A4.043,4.043,0,0,0,207.86,33.426Zm-8.617,11.341a3.4,3.4,0,0,1-2.418,1h-1.307V44.458a3.4,3.4,0,0,1,1-2.417l4.715-4.715,2.726,2.726Zm7.125-7.125-.92.92-2.726-2.726.919-.919a1.928,1.928,0,0,1,2.727,2.725Z" transform="translate(-193.41 -32.247)"/></g></g></g></svg>