<svg xmlns="http://www.w3.org/2000/svg" width="25.024" height="25.024" viewBox="0 0 25.024 25.024">
  <g id="settings_2_" data-name="settings (2)" transform="translate(0.25 0.25)">
    <path id="Caminho_438" data-name="Caminho 438" d="M13.032,24.524H11.493a2.26,2.26,0,0,1-2.258-2.258v-.521A9.9,9.9,0,0,1,7.7,21.108l-.369.369a2.258,2.258,0,0,1-3.193,0L3.047,20.389a2.258,2.258,0,0,1,0-3.193l.369-.369a9.9,9.9,0,0,1-.638-1.537H2.258A2.26,2.26,0,0,1,0,13.032V11.493A2.26,2.26,0,0,1,2.258,9.235h.521A9.9,9.9,0,0,1,3.417,7.7l-.369-.369a2.258,2.258,0,0,1,0-3.193L4.136,3.048a2.257,2.257,0,0,1,3.193,0l.369.369a9.91,9.91,0,0,1,1.537-.638V2.258A2.26,2.26,0,0,1,11.493,0h1.539a2.26,2.26,0,0,1,2.258,2.258v.521a9.9,9.9,0,0,1,1.537.638l.369-.369a2.258,2.258,0,0,1,3.193,0l1.088,1.088a2.258,2.258,0,0,1,0,3.193l-.369.369a9.9,9.9,0,0,1,.638,1.537h.521a2.26,2.26,0,0,1,2.258,2.258v1.539a2.26,2.26,0,0,1-2.258,2.258h-.521a9.9,9.9,0,0,1-.638,1.537l.369.369a2.258,2.258,0,0,1,0,3.193l-1.088,1.088a2.257,2.257,0,0,1-3.193,0l-.369-.369a9.91,9.91,0,0,1-1.537.638v.521A2.26,2.26,0,0,1,13.032,24.524ZM7.938,19.6a8.469,8.469,0,0,0,2.2.911.718.718,0,0,1,.539.7v1.061a.822.822,0,0,0,.821.821h1.539a.822.822,0,0,0,.821-.821V21.206a.718.718,0,0,1,.539-.7,8.469,8.469,0,0,0,2.2-.911.718.718,0,0,1,.874.11l.751.751a.82.82,0,0,0,1.16,0l1.089-1.089a.821.821,0,0,0,0-1.16l-.752-.752a.719.719,0,0,1-.11-.874,8.468,8.468,0,0,0,.911-2.2.718.718,0,0,1,.7-.539h1.061a.822.822,0,0,0,.821-.821V11.493a.822.822,0,0,0-.821-.821H21.206a.718.718,0,0,1-.7-.539,8.469,8.469,0,0,0-.911-2.2.719.719,0,0,1,.11-.874l.751-.751a.82.82,0,0,0,0-1.16L19.373,4.064a.82.82,0,0,0-1.16,0l-.752.752a.718.718,0,0,1-.874.11,8.469,8.469,0,0,0-2.2-.911.718.718,0,0,1-.539-.7V2.258a.822.822,0,0,0-.821-.821H11.493a.822.822,0,0,0-.821.821V3.319a.718.718,0,0,1-.539.7,8.469,8.469,0,0,0-2.2.911.719.719,0,0,1-.874-.11l-.751-.751a.82.82,0,0,0-1.16,0L4.064,5.152a.821.821,0,0,0,0,1.16l.752.752a.719.719,0,0,1,.11.874,8.468,8.468,0,0,0-.911,2.2.718.718,0,0,1-.7.539H2.258a.822.822,0,0,0-.821.821v1.539a.822.822,0,0,0,.821.821H3.319a.718.718,0,0,1,.7.539,8.469,8.469,0,0,0,.911,2.2.719.719,0,0,1-.11.874l-.751.751a.82.82,0,0,0,0,1.16l1.089,1.089a.82.82,0,0,0,1.16,0l.752-.752a.722.722,0,0,1,.874-.11Z" stroke-width="0.5"/>
    <path id="Caminho_439" data-name="Caminho 439" d="M149.936,155.272a5.336,5.336,0,1,1,5.336-5.336A5.342,5.342,0,0,1,149.936,155.272Zm0-9.235a3.9,3.9,0,1,0,3.9,3.9A3.9,3.9,0,0,0,149.936,146.037Z" transform="translate(-137.674 -137.674)" stroke-width="0.5"/>
  </g>
</svg>
