<svg width="55" height="35" viewBox="23 10 55 35" fill="none" xmlns="http://www.w3.org/2000/svg">
<path d="M61.4429 15.426C61.0882 15.261 60.6695 15.3197 60.3719 15.5753L58.7388 16.9748L57.3915 15.6275C57.0396 15.2741 56.4803 15.2356 56.0838 15.5343L54.0136 17.0867L51.9439 15.5341C51.5469 15.2369 50.9877 15.2754 50.6329 15.6275L49.2889 16.9749L47.6541 15.5753C47.3574 15.3197 46.9374 15.261 46.5831 15.426C46.2275 15.589 46 15.9444 46 16.3359V35.6646C46 36.0559 46.2276 36.4113 46.5831 36.5745C46.9372 36.7388 47.3573 36.6801 47.6541 36.4251L49.2873 35.0257L50.6346 36.373C50.9867 36.7264 51.5448 36.7636 51.9443 36.4662L54.0136 34.9125L56.0834 36.4651C56.4825 36.7638 57.04 36.7266 57.3931 36.3719L58.7404 35.0246L60.3736 36.4241C60.5589 36.5832 60.791 36.6653 61.0256 36.6653C61.1677 36.6653 61.3105 36.6353 61.4442 36.5734C61.7977 36.4484 62.0273 36.0937 62.0273 35.6638V16.3359C62.0273 15.9444 61.7977 15.589 61.4429 15.426ZM60.0239 33.5226L59.3402 32.937C58.9424 32.596 58.351 32.6188 57.98 32.9892L56.5909 34.3782L54.6147 32.8966C54.4352 32.763 54.2265 32.6587 54.0136 32.6587C53.8008 32.6587 53.5921 32.763 53.4126 32.8966L51.4367 34.3787L50.0477 32.9896C49.6773 32.6193 49.0857 32.5964 48.6875 32.9375L48.0034 33.5226V18.5138L48.6871 19.0993C49.0855 19.441 49.6771 19.4189 50.0473 19.0472L51.4363 17.6581L53.4122 19.1402C53.7683 19.4076 54.2586 19.4076 54.6147 19.1402L56.5905 17.6581L57.9795 19.0472C58.3506 19.4189 58.942 19.441 59.3398 19.0993L60.0239 18.5138V33.5226ZM57.6865 22.0114H50.3407C49.9716 22.0114 49.6729 22.3101 49.6729 22.6416C49.6729 22.9732 49.9716 23.2719 50.3407 23.2719H57.6865C58.0557 23.2719 58.3544 22.9732 58.3544 22.6416C58.3544 22.3101 58.0538 22.0114 57.6865 22.0114ZM57.6865 28.6518H50.3407C49.9716 28.6518 49.6729 28.9505 49.6729 29.2821C49.6729 29.6512 49.9716 29.9123 50.3407 29.9123H57.6865C58.0557 29.9123 58.3544 29.6136 58.3544 29.2821C58.3544 28.9899 58.0538 28.6518 57.6865 28.6518ZM57.6865 25.3504H50.3407C49.9716 25.3504 49.6729 25.6491 49.6729 25.9806C49.6729 26.3497 49.9716 26.6109 50.3407 26.6109H57.6865C58.0557 26.6109 58.3544 26.3122 58.3544 25.9806C58.3544 25.6509 58.0538 25.3504 57.6865 25.3504Z" />
<path d="M62.3982 31.5005L62.3969 31.5005L62.3982 31.5005ZM58.2929 29.2929C56.2453 31.3405 56.2453 34.6595 58.2929 36.7071C60.3404 38.7547 63.6595 38.7547 65.7071 36.7071C67.7546 34.6595 67.7546 31.3405 65.7071 29.2929C63.6595 27.2453 60.3404 27.2453 58.2929 29.2929Z"  stroke="white" stroke-width="2"/>
</svg>

