<svg width="20" height="19" viewBox="0 0 20 19" fill="none" xmlns="http://www.w3.org/2000/svg">
<path d="M17.0001 4.16675H14.6667V3.00008C14.6667 1.71128 13.6222 0.666748 12.3334 0.666748H7.66675C6.37977 0.666748 5.33342 1.71128 5.33342 3.00008V4.16675H3.00008C1.71128 4.16675 0.666748 5.2131 0.666748 6.50008V15.8334C0.666748 17.1222 1.71128 18.1667 3.00008 18.1667H17.0001C18.2889 18.1667 19.3334 17.1222 19.3334 15.8334V6.50008C19.3334 5.2131 18.2871 4.16675 17.0001 4.16675ZM7.66675 2.41675H12.3334C12.6556 2.41675 12.9167 2.6779 12.9167 3.00008V4.16675H7.08342V3.00008C7.08342 2.67779 7.34592 2.41675 7.66675 2.41675ZM3.00008 5.91675H17.0001C17.3209 5.91675 17.5834 6.17925 17.5834 6.50008V10.0001H2.41675V6.50008C2.41675 6.17925 2.67925 5.91675 3.00008 5.91675ZM17.0001 16.4167H3.00008C2.67925 16.4167 2.41675 16.1542 2.41675 15.8334V11.7501H7.66675V12.3334C7.66675 12.9776 8.1892 13.5001 8.83342 13.5001H11.1667C11.811 13.5001 12.3334 12.9776 12.3334 12.3334V11.7501H17.5834V15.8334C17.5834 16.1542 17.3209 16.4167 17.0001 16.4167Z" />
</svg>
