<svg xmlns="http://www.w3.org/2000/svg" width="144.26" height="131.725" viewBox="0 0 144.26 131.725">
  <g id="Grupo_289" data-name="Grupo 289" transform="translate(-576 -363.275)">
    <g id="Grupo_288" data-name="Grupo 288" transform="translate(519.889 330.676)">
      <g id="Grupo_284" data-name="Grupo 284" transform="translate(56.509 32.599)">
        <g id="Grupo_273" data-name="Grupo 273" transform="translate(0 70.963)">
          <rect id="Retângulo_107" data-name="Retângulo 107" width="10.58" height="42.732" transform="translate(76.414)" fill="#e6e6e6"/>
          <path id="Caminho_88" data-name="Caminho 88" d="M273.842,329.063h4.4v-7.371h-9.01Z" transform="translate(-191.247 -286.331)" fill="#f5f5f5"/>
          <rect id="Retângulo_108" data-name="Retângulo 108" width="10.58" height="42.732" fill="#e6e6e6"/>
          <rect id="Retângulo_109" data-name="Retângulo 109" width="80.252" height="40.195" transform="translate(6.741)" fill="#f5f5f5"/>
          <path id="Caminho_89" data-name="Caminho 89" d="M158.1,243.983H84.3v-8.791h73.8Zm-73.428-.368h73.061V235.56H84.668Z" transform="translate(-74.331 -231.644)" fill="#ebebeb"/>
          <path id="Caminho_90" data-name="Caminho 90" d="M79.922,329.063h-4.4v-7.371h9.01Z" transform="translate(-68.782 -286.331)" fill="#f5f5f5"/>
          <path id="Caminho_91" data-name="Caminho 91" d="M158.1,289.184H84.3V268.239h73.8Zm-73.428-.368h73.061v-20.21H84.668Z" transform="translate(-74.331 -252.537)" fill="#ebebeb"/>
        </g>
        <g id="Grupo_278" data-name="Grupo 278" transform="translate(45.471)">
          <g id="Grupo_276" data-name="Grupo 276" transform="translate(0 1.934)">
            <g id="Grupo_275" data-name="Grupo 275">
              <g id="Grupo_274" data-name="Grupo 274">
                <rect id="Retângulo_110" data-name="Retângulo 110" width="83.625" height="57.911" fill="#e6e6e6"/>
                <rect id="Retângulo_111" data-name="Retângulo 111" width="83.625" height="57.911" transform="translate(1.537)" fill="#f5f5f5"/>
                <rect id="Retângulo_112" data-name="Retângulo 112" width="52.064" height="78.107" transform="translate(82.403 2.924) rotate(90)" fill="#fff"/>
                <rect id="Retângulo_113" data-name="Retângulo 113" width="52.064" height="1.162" transform="translate(82.403 2.924) rotate(90)" fill="#e6e6e6"/>
                <rect id="Retângulo_114" data-name="Retângulo 114" width="81.343" height="1.963" transform="translate(2.678 7.588)" fill="#f5f5f5"/>
              </g>
            </g>
          </g>
          <g id="Grupo_277" data-name="Grupo 277" transform="translate(21.757)" opacity="0.5">
            <rect id="Retângulo_115" data-name="Retângulo 115" width="3.303" height="64.321" transform="translate(58.736)" fill="#f0f0f0"/>
            <rect id="Retângulo_116" data-name="Retângulo 116" width="3.303" height="64.321" transform="translate(54.54)" fill="#f0f0f0"/>
            <rect id="Retângulo_117" data-name="Retângulo 117" width="3.303" height="64.321" transform="translate(50.345)" fill="#f0f0f0"/>
            <rect id="Retângulo_118" data-name="Retângulo 118" width="3.303" height="64.321" transform="translate(46.15)" fill="#f0f0f0"/>
            <rect id="Retângulo_119" data-name="Retângulo 119" width="3.303" height="64.321" transform="translate(41.954)" fill="#f0f0f0"/>
            <rect id="Retângulo_120" data-name="Retângulo 120" width="3.303" height="64.321" transform="translate(37.759)" fill="#f0f0f0"/>
            <rect id="Retângulo_121" data-name="Retângulo 121" width="3.303" height="64.321" transform="translate(33.563)" fill="#f0f0f0"/>
            <rect id="Retângulo_122" data-name="Retângulo 122" width="3.303" height="64.321" transform="translate(29.368)" fill="#f0f0f0"/>
            <rect id="Retângulo_123" data-name="Retângulo 123" width="3.303" height="64.321" transform="translate(25.172)" fill="#f0f0f0"/>
            <rect id="Retângulo_124" data-name="Retângulo 124" width="3.303" height="64.321" transform="translate(20.977)" fill="#f0f0f0"/>
            <rect id="Retângulo_125" data-name="Retângulo 125" width="3.303" height="64.321" transform="translate(16.782)" fill="#f0f0f0"/>
            <rect id="Retângulo_126" data-name="Retângulo 126" width="3.303" height="64.321" transform="translate(12.586)" fill="#f0f0f0"/>
            <rect id="Retângulo_127" data-name="Retângulo 127" width="3.303" height="64.321" transform="translate(8.391)" fill="#f0f0f0"/>
            <rect id="Retângulo_128" data-name="Retângulo 128" width="3.303" height="64.321" transform="translate(4.195)" fill="#f0f0f0"/>
            <rect id="Retângulo_129" data-name="Retângulo 129" width="3.303" height="64.321" fill="#f0f0f0"/>
          </g>
        </g>
        <g id="Grupo_279" data-name="Grupo 279" transform="translate(2.021 8.852)">
          <rect id="Retângulo_130" data-name="Retângulo 130" width="24.238" height="44.077" fill="#f0f0f0"/>
          <rect id="Retângulo_131" data-name="Retângulo 131" width="27.879" height="44.077" transform="translate(1.563)" fill="#f5f5f5"/>
          <rect id="Retângulo_132" data-name="Retângulo 132" width="41.985" height="25.605" transform="translate(2.7 43.031) rotate(-90)" fill="#fff"/>
          <rect id="Retângulo_133" data-name="Retângulo 133" width="27.303" height="11.957" rx="2.76" transform="translate(9.524 35.69) rotate(-90)" fill="#f5f5f5"/>
        </g>
        <g id="Grupo_283" data-name="Grupo 283" transform="translate(94.588 35.701)">
          <g id="Grupo_281" data-name="Grupo 281" transform="translate(0 0)">
            <g id="Grupo_280" data-name="Grupo 280" transform="translate(19.577 9.914)">
              <path id="Caminho_92" data-name="Caminho 92" d="M373.729,156.623l4.957,12.219c-.142,35.341,1.455,37.377,1.469,43.457H367.64C367.19,182.718,371.575,189.368,373.729,156.623Z" transform="translate(-367.608 -156.623)" fill="#ebebeb"/>
            </g>
            <path id="Caminho_93" data-name="Caminho 93" d="M347.793,222.591c-10.073-27.734-33.264-19.144-32.226-9.036S353.586,238.542,347.793,222.591Z" transform="translate(-315.108 -176.587)" fill="#ebebeb"/>
            <path id="Caminho_94" data-name="Caminho 94" d="M358.323,275.536c-5.5-17.874-20.11-14.956-20.11-6.742S361.484,285.816,358.323,275.536Z" transform="translate(-329.447 -213.539)" fill="#ebebeb"/>
            <path id="Caminho_95" data-name="Caminho 95" d="M342.862,179.321c-8.627-23.891-30.116-20.6-28.386-10.524S347.824,193.062,342.862,179.321Z" transform="translate(-314.378 -149.586)" fill="#ebebeb"/>
            <path id="Caminho_96" data-name="Caminho 96" d="M367.478,150.841c.8-16.278-15.32-22.977-14.2-13.25S367.018,160.2,367.478,150.841Z" transform="translate(-338.934 -131.821)" fill="#ebebeb"/>
            <path id="Caminho_97" data-name="Caminho 97" d="M388.5,189.535c3.4-20.057,24.062-27.687,21.754-16.334S386.54,201.071,388.5,189.535Z" transform="translate(-361.158 -153.85)" fill="#ebebeb"/>
            <path id="Caminho_98" data-name="Caminho 98" d="M383.01,154.014c-4.011-21.033,14.547-30.379,15.081-20.239S385.317,166.111,383.01,154.014Z" transform="translate(-357.409 -129.668)" fill="#ebebeb"/>
            <path id="Caminho_99" data-name="Caminho 99" d="M378.656,236.275c8.2-20.269,25.758-15.24,23.986-6.015S373.94,247.933,378.656,236.275Z" transform="translate(-354.666 -188.171)" fill="#ebebeb"/>
            <path id="Caminho_100" data-name="Caminho 100" d="M390.605,276.836c-.182-13.077,11.687-16.457,11.828-8.882S390.711,284.357,390.605,276.836Z" transform="translate(-362.569 -214.577)" fill="#ebebeb"/>
          </g>
          <g id="Grupo_282" data-name="Grupo 282" transform="translate(9.547 62.379)">
            <path id="Caminho_101" data-name="Caminho 101" d="M355.2,314.984h0A13.657,13.657,0,0,1,341.831,304.3a28.02,28.02,0,0,0-1.394-4.775l-.1-.248h29.731l-.1.248a28.047,28.047,0,0,0-1.394,4.775A13.657,13.657,0,0,1,355.2,314.984Z" transform="translate(-340.335 -299.277)" fill="#e0e0e0"/>
          </g>
        </g>
      </g>
      <ellipse id="_Path_" data-name="&lt;Path&gt;" cx="71.309" cy="4.165" rx="71.309" ry="4.165" transform="translate(56.111 150.103)" fill="#f5f5f5"/>
      <g id="Grupo_287" data-name="Grupo 287" transform="translate(74.31 53.943)">
        <path id="Caminho_102" data-name="Caminho 102" d="M177.708,169.174l-.232-.285a24.843,24.843,0,0,1,3.018-2.1l.187.317A24.547,24.547,0,0,0,177.708,169.174Z" transform="translate(-151.039 -138.78)" fill="#407bff"/>
        <path id="Caminho_103" data-name="Caminho 103" d="M156.983,186.241l-.344-.128a25.262,25.262,0,0,1,5.765-8.955l.26.26A24.9,24.9,0,0,0,156.983,186.241Z" transform="translate(-137.866 -145.335)" fill="#407bff"/>
        <path id="Caminho_104" data-name="Caminho 104" d="M195.966,192.128a19.592,19.592,0,0,0-26.925-18,23.679,23.679,0,0,0-44.393,5.239,20.377,20.377,0,0,0,1.327,40.711h64.848a14.447,14.447,0,0,0,5.144-27.946Z" transform="translate(-105.595 -135.013)" fill="#407bff"/>
        <path id="Caminho_105" data-name="Caminho 105" d="M219.706,222.543H167.812a1.6,1.6,0,0,1-1.594-1.594h0a1.6,1.6,0,0,1,1.594-1.594h51.894a1.6,1.6,0,0,1,1.594,1.594h0A1.6,1.6,0,0,1,219.706,222.543Z" transform="translate(-143.922 -172.013)" fill="#263238"/>
        <path id="Caminho_106" data-name="Caminho 106" d="M218.868,268.21H182.63a5.355,5.355,0,1,1,0-10.71h36.238a5.355,5.355,0,1,1,0,10.71ZM182.63,257.868a4.987,4.987,0,1,0,0,9.974h36.238a4.987,4.987,0,1,0,0-9.974Z" transform="translate(-150.912 -196.129)" fill="#fff"/>
        <path id="Caminho_107" data-name="Caminho 107" d="M193.305,269.135h-8.463a4.08,4.08,0,0,1-4.068-4.068h0A4.08,4.08,0,0,1,184.842,261h8.463a4.08,4.08,0,0,1,4.068,4.068h0A4.08,4.08,0,0,1,193.305,269.135Z" transform="translate(-153.124 -198.342)" fill="#fff"/>
        <g id="Grupo_286" data-name="Grupo 286" transform="translate(29.334)">
          <path id="Caminho_108" data-name="Caminho 108" d="M233.285,110.247l-6.88,29.322H185.353l11.482-48.936,28.426,6.67Z" transform="translate(-185.353 -90.634)" fill="#407bff"/>
          <path id="Caminho_109" data-name="Caminho 109" d="M233.285,110.247l-6.88,29.322H185.353l11.482-48.936,28.426,6.67Z" transform="translate(-185.353 -90.634)" fill="#fafafa" opacity="0.8"/>
          <g id="Grupo_285" data-name="Grupo 285" transform="translate(5.989 16.1)">
            <path id="Caminho_110" data-name="Caminho 110" d="M246.412,143.373l-31.182-7.316a.837.837,0,0,1-.622-1h0a.838.838,0,0,1,1-.622l31.182,7.316a.838.838,0,0,1,.622,1h0A.837.837,0,0,1,246.412,143.373Z" transform="translate(-209.823 -134.409)" fill="#407bff"/>
            <path id="Caminho_111" data-name="Caminho 111" d="M243.175,157.172l-31.182-7.316a.837.837,0,0,1-.622-1h0a.837.837,0,0,1,1-.622l31.182,7.316a.837.837,0,0,1,.622,1h0A.838.838,0,0,1,243.175,157.172Z" transform="translate(-207.777 -143.133)" fill="#407bff"/>
            <path id="Caminho_112" data-name="Caminho 112" d="M239.937,170.97l-31.182-7.316a.837.837,0,0,1-.622-1h0a.837.837,0,0,1,1-.622l31.182,7.316a.837.837,0,0,1,.622,1h0A.837.837,0,0,1,239.937,170.97Z" transform="translate(-205.73 -151.856)" fill="#407bff"/>
            <path id="Caminho_113" data-name="Caminho 113" d="M236.7,184.769l-31.182-7.316a.837.837,0,0,1-.622-1h0a.837.837,0,0,1,1-.622l31.182,7.316a.837.837,0,0,1,.622,1h0A.837.837,0,0,1,236.7,184.769Z" transform="translate(-203.683 -160.58)" fill="#407bff"/>
            <path id="Caminho_114" data-name="Caminho 114" d="M221.065,195.659l-18.785-4.408a.837.837,0,0,1-.622-1h0a.837.837,0,0,1,1-.622l18.785,4.408a.837.837,0,0,1,.622,1h0A.837.837,0,0,1,221.065,195.659Z" transform="translate(-201.636 -169.304)" fill="#407bff"/>
          </g>
          <path id="Caminho_115" data-name="Caminho 115" d="M297.659,121.712l-10.484-2.46,2.46-10.484Z" transform="translate(-249.726 -102.099)" fill="#407bff"/>
        </g>
      </g>
    </g>
    <ellipse id="Elipse_4" data-name="Elipse 4" cx="67.5" cy="5.5" rx="67.5" ry="5.5" transform="translate(576 484)" fill="#ebebeb"/>
  </g>
</svg>
