<svg xmlns="http://www.w3.org/2000/svg" width="169.241" height="35.598" viewBox="0 0 169.241 35.598"><g transform="translate(-185 -213.646)"><path d="M124.753,34.048a5.209,5.209,0,0,1-1.834-4.21,5.582,5.582,0,0,1,1.439-3.579,6.377,6.377,0,0,1,2.863-1.943,25.245,25.245,0,0,1,4.414-1.023q1.534-.24,2.266-.426a2.084,2.084,0,0,0,.989-.461,1.29,1.29,0,0,0,.065-1.084,3.163,3.163,0,0,0-2.911-1.878,3.229,3.229,0,0,0-2.212.808,3.175,3.175,0,0,0-1.043,2.427l-5.038-.021a6.607,6.607,0,0,1,2.311-5.007,8.194,8.194,0,0,1,5.947-2.062,8.9,8.9,0,0,1,5.488,1.636,6.191,6.191,0,0,1,2.745,4.849l0,13.456h-5.064V33.621A7.865,7.865,0,0,1,129.73,35.6,7.478,7.478,0,0,1,124.753,34.048Zm7.428-7.005a17.1,17.1,0,0,0-2.675.631,2.642,2.642,0,0,0-1.261.8,2.106,2.106,0,0,0-.359,1.3,1.763,1.763,0,0,0,.664,1.533,3.716,3.716,0,0,0,2.132.478,4.692,4.692,0,0,0,3.221-1.126,3.532,3.532,0,0,0,1.273-2.708V26.226A23.937,23.937,0,0,1,132.181,27.042ZM90.833,29.455v-.7H96.1v.7c0,1.087,1.014,1.764,2.645,1.764,1.541,0,2.5-.564,2.5-1.47,0-1.012-1.3-1.4-3.422-1.949-2.854-.74-6.765-1.753-6.765-6.177,0-3.723,2.846-6.034,7.429-6.034,4.6,0,7.688,2.336,7.688,5.812v.7h-5.225v-.627c0-.914-.924-1.506-2.352-1.506-1.1,0-2.278.347-2.278,1.322s1.29,1.349,3.391,1.861c2.883.7,6.831,1.663,6.831,6.155,0,3.88-2.972,6.289-7.759,6.289C94.024,35.6,90.833,33.13,90.833,29.455Zm-24.6,4.618v1.215H61.267V6.4h4.965v10.78a9.326,9.326,0,0,1,5.1-1.526,9.8,9.8,0,0,1,9.623,9.973A9.8,9.8,0,0,1,71.331,35.6,9.323,9.323,0,0,1,66.232,34.073Zm0-10.121c-.026.592-.016,2.631,0,3.292.051,2.161,2.584,3.924,4.663,3.924a5.346,5.346,0,0,0,5.124-5.543A5.346,5.346,0,0,0,70.9,20.083C68.816,20.083,66.324,21.813,66.232,23.952ZM40.339,28.037V15.59h5.043V26.562a3.868,3.868,0,0,0,4.072,4.15A4.042,4.042,0,0,0,53.8,26.485V15.59h5.042V35.267H53.8V32.729A7.393,7.393,0,0,1,47.786,35.6C43.327,35.6,40.339,32.613,40.339,28.037ZM0,20.978a14.609,14.609,0,0,1,14.243-14.6L11.388,3.524,14.912,0l9.5,9.5-9.5,9.5-3.524-3.523,4.106-4.106c-.289-.026-.578-.052-.874-.052a9.673,9.673,0,1,0,8.97,6.1l3.7-3.7A14.615,14.615,0,1,1,0,20.978ZM165.756,35.267c-3.695,0-6.172-2.267-6.172-5.754v-.168h0V20.2h-3.8V15.59h3.8v-5L164.622,9.5v6.09h3.994V20.2h-3.994v8.01a2.239,2.239,0,0,0,2.435,2.393h2.184v4.661Zm-23.175,0V15.544h4.964V18.3a5.587,5.587,0,0,1,6.154-2.6V20.7a4.915,4.915,0,0,0-4.761,1.2,5.461,5.461,0,0,0-1.369,2.218.838.838,0,0,0-.023.259v10.9Zm-24.592,0c-3.695,0-6.172-2.267-6.172-5.754v-.168h0V20.2h-3.8V15.59h3.8v-5L116.855,9.5v6.09h3.995V20.2h-3.995v8.01a2.238,2.238,0,0,0,2.434,2.393h2.184v4.661Zm-34.488,0V15.546h4.963V35.267ZM29.286,9.541a3.1,3.1,0,1,1,3.1,3.1A3.1,3.1,0,0,1,29.286,9.541ZM82.921,9.5a3.1,3.1,0,1,1,3.1,3.1A3.1,3.1,0,0,1,82.921,9.5Z" transform="translate(185 213.646)"/></g></svg>