<svg xmlns="http://www.w3.org/2000/svg" width="469.728" height="268.521" viewBox="0 0 469.728 268.521"><defs><style>.a{fill:#eff2f4;opacity:0.47;}.b{fill:#9ec8ff;}.c{fill:#fff;}.d{fill:#e9eaeb;}.e{fill:#407bff;}.f,.g{fill:#99bbeb;}.g{opacity:0.2;}.h{fill:#0c53b7;}.i{fill:#f5c75a;}.j{fill:#2a64e6;}.k{fill:#f37168;}.l{fill:#d54a41;}.m{fill:#d9a01a;}.n{fill:#f09959;}.o{fill:#75a1de;}.p{fill:#f2e5de;}.q{fill:#12b57d;}.r{fill:#21e8a4;}.s{fill:#32cb96;}.t{fill:#ae5d21;}.u{fill:#7b4217;}.v{fill:#2258cf;}.ab,.w{fill:none;}.w{stroke:#407bff;stroke-width:2px;}.x{fill:#c89828;}.y{fill:#eb8c47;}.z{fill:#c56925;}.aa{stroke:none;}</style></defs><g transform="translate(-249.224 -288.958)"><path class="a" d="M3722.771,149.512c64.16-23.819,129.37-2.761,173.6,43.1s137.043-31.657,186.268,14.134c33.594,31.25,18.207,111.594-27.856,146.393-62.61,47.3-253.015,23.3-294.2,15.25-47.452-9.274-82.143-37.411-96.238-71.56C3630.378,214.548,3694.418,160.038,3722.771,149.512Z" transform="translate(-3405.429 168.816)"/><g transform="translate(297.945 288.958)"><g transform="translate(133.763 0)"><path class="b" d="M4941.351,71.033a53.262,53.262,0,0,0,.332-5.914c0-1.055-.035-2.1-.1-3.142l-9.772-3.161a42.928,42.928,0,0,0-3.46-11.708l6.479-7.973a52.79,52.79,0,0,0-5.132-7.461l-9.773,3.189a43.438,43.438,0,0,0-9.674-7.437l.556-10.268a52.27,52.27,0,0,0-8.531-3.024l-6.035,8.328a43.44,43.44,0,0,0-12.2-.32l-5.587-8.636a52.241,52.241,0,0,0-8.68,2.565l.012,10.283a43.342,43.342,0,0,0-10.054,6.916l-9.588-3.7a52.834,52.834,0,0,0-5.521,7.179l6.05,8.306a42.967,42.967,0,0,0-4.079,11.508l-9.924,2.641a53.144,53.144,0,0,0-.332,5.914c0,1.055.035,2.1.1,3.142l9.772,3.161a42.945,42.945,0,0,0,3.459,11.708L4843.19,91.1a52.833,52.833,0,0,0,5.133,7.461l9.773-3.189a43.415,43.415,0,0,0,9.674,7.437l-.556,10.268a52.27,52.27,0,0,0,8.531,3.024l6.035-8.328a43.457,43.457,0,0,0,12.2.32l5.586,8.636a52.231,52.231,0,0,0,8.68-2.565l-.013-10.283a43.347,43.347,0,0,0,10.055-6.916l9.587,3.7a52.836,52.836,0,0,0,5.521-7.179l-6.051-8.306a42.935,42.935,0,0,0,4.08-11.508Zm-52.338,14.745a20.658,20.658,0,1,1,20.658-20.658A20.659,20.659,0,0,1,4889.013,85.778Z" transform="translate(-4836.343 -13.508)"/><g transform="translate(80.075 39.22)"><path class="c" d="M5355.645,303.435a.772.772,0,0,1-.593-1.266,34.95,34.95,0,0,0,6.158-33.663.772.772,0,0,1,1.46-.5,36.5,36.5,0,0,1-6.431,35.153A.773.773,0,0,1,5355.645,303.435Z" transform="translate(-5354.873 -267.482)"/></g><g transform="translate(64.806 17.305)"><path class="c" d="M5269.048,134.677a.77.77,0,0,1-.529-.21,34.687,34.687,0,0,0-12.012-7.4.772.772,0,0,1,.527-1.452,36.223,36.223,0,0,1,12.544,7.728.772.772,0,0,1-.529,1.334Z" transform="translate(-5255.998 -125.568)"/></g><g transform="translate(43.886 15.177)"><path class="c" d="M5121.3,114.413a.772.772,0,0,1-.188-1.521,36.566,36.566,0,0,1,8.944-1.106.772.772,0,0,1,0,1.544,35.032,35.032,0,0,0-8.567,1.059A.775.775,0,0,1,5121.3,114.413Z" transform="translate(-5120.528 -111.786)"/></g></g><g transform="translate(0 148.486)"><path class="b" d="M4042.885,1014.885a36.834,36.834,0,0,0,.23-4.1c0-.731-.024-1.456-.066-2.176l-6.769-2.19a29.744,29.744,0,0,0-2.4-8.109l4.488-5.522a36.631,36.631,0,0,0-3.555-5.168l-6.769,2.209a30.093,30.093,0,0,0-6.7-5.151l.385-7.112a36.242,36.242,0,0,0-5.91-2.094l-4.18,5.768a30.11,30.11,0,0,0-8.45-.221l-3.869-5.981a36.181,36.181,0,0,0-6.012,1.777l.009,7.122a30.01,30.01,0,0,0-6.964,4.791l-6.641-2.562a36.611,36.611,0,0,0-3.824,4.972l4.191,5.753a29.75,29.75,0,0,0-2.826,7.971l-6.874,1.829a36.835,36.835,0,0,0-.23,4.1c0,.731.024,1.456.066,2.176l6.769,2.19a29.743,29.743,0,0,0,2.4,8.109l-4.488,5.523a36.545,36.545,0,0,0,3.555,5.168l6.77-2.209a30.08,30.08,0,0,0,6.7,5.151l-.385,7.112a36.236,36.236,0,0,0,5.909,2.094l4.18-5.768a30.1,30.1,0,0,0,8.45.221l3.87,5.982a36.178,36.178,0,0,0,6.012-1.777l-.009-7.122a30,30,0,0,0,6.964-4.791l6.641,2.563a36.614,36.614,0,0,0,3.824-4.973l-4.19-5.753a29.77,29.77,0,0,0,2.825-7.971Zm-36.251,10.213a14.309,14.309,0,1,1,14.309-14.309A14.309,14.309,0,0,1,4006.634,1025.1Z" transform="translate(-3970.152 -975.04)"/><g transform="translate(55.226 26.928)"><path class="c" d="M4328.542,1174.794a.772.772,0,0,1-.593-1.266,23.974,23.974,0,0,0,4.224-23.087.772.772,0,1,1,1.459-.5,25.514,25.514,0,0,1-4.5,24.578A.769.769,0,0,1,4328.542,1174.794Z" transform="translate(-4327.771 -1149.417)"/></g><g transform="translate(44.65 11.749)"><path class="c" d="M4268.561,1057.9a.769.769,0,0,1-.529-.21,23.8,23.8,0,0,0-8.237-5.076.772.772,0,1,1,.526-1.452,25.317,25.317,0,0,1,8.77,5.4.772.772,0,0,1-.529,1.334Z" transform="translate(-4259.285 -1051.119)"/></g><g transform="translate(30.16 10.275)"><path class="c" d="M4166.226,1043.869a.772.772,0,0,1-.188-1.521,25.569,25.569,0,0,1,6.253-.773.772.772,0,1,1,0,1.544,24.028,24.028,0,0,0-5.875.726A.769.769,0,0,1,4166.226,1043.869Z" transform="translate(-4165.453 -1041.575)"/></g></g><path class="b" d="M5453.07,496.445q0-.6-.033-1.19l5.071-4.072a27.046,27.046,0,0,0-1.842-5.826l-6.548-.5a21.775,21.775,0,0,0-5.668-6.014l-.021-6.525a27.019,27.019,0,0,0-5.806-2.24l-4.475,4.816a21.769,21.769,0,0,0-8.047.631l-5.131-4.064a27.178,27.178,0,0,0-5.428,3.148l.97,6.469a21.7,21.7,0,0,0-4.571,6.671l-6.384,1.48a27.19,27.19,0,0,0-.942,6.154l5.623,3.251a21.517,21.517,0,0,0,2.4,7.945l-2.815,5.9a27.381,27.381,0,0,0,4.137,4.5l6.029-2.362a21.545,21.545,0,0,0,7.95,3.154l2.842,5.851c.339.013.678.021,1.02.021a27.351,27.351,0,0,0,4.986-.457l1.917-6.2a21.642,21.642,0,0,0,7.48-4.343l6.337,1.424a27.284,27.284,0,0,0,3.376-4.986l-3.673-5.395A21.642,21.642,0,0,0,5453.07,496.445Zm-21.91,9.548a9.128,9.128,0,1,1,9.128-9.128A9.128,9.128,0,0,1,5431.16,505.993Z" transform="translate(-5182.757 -399.577)"/></g><path class="d" d="M4259.557,1621.846c-32.117-1.57-141.372,1.09-174.6,2.127s-71.8-1.368-91.833-4.905-135.845.3-130.589,9.81,51.6,4.254,104.152,8.076,170.749-.478,197.41,0,51.109-.956,85.467-2.867S4278.173,1622.756,4259.557,1621.846Z" transform="translate(-3581.063 -1081.072)"/><rect class="e" width="67.136" height="102.468" rx="11" transform="translate(283.741 354.196)"/><rect class="c" width="61.413" height="95.406" rx="8.401" transform="translate(286.603 357.727)"/><path class="f" d="M4050.881,795.121h-15.756a1.832,1.832,0,1,1,0-3.664h15.756a1.832,1.832,0,0,1,0,3.664Z" transform="translate(-3725.597 -382.363)"/><path class="f" d="M4037.97,831.573h-21.526a1.832,1.832,0,0,1,0-3.664h21.526a1.832,1.832,0,0,1,0,3.664Z" transform="translate(-3709.801 -413.186)"/><path class="f" d="M3973.176,899.939h-52.362a1.063,1.063,0,1,1,0-2.126h52.362a1.063,1.063,0,0,1,0,2.126Z" transform="translate(-3629.588 -472.295)"/><path class="f" d="M3973.176,931.935h-52.362a1.063,1.063,0,1,1,0-2.126h52.362a1.063,1.063,0,0,1,0,2.126Z" transform="translate(-3629.588 -499.35)"/><path class="f" d="M3973.176,963.931h-52.362a1.063,1.063,0,1,1,0-2.126h52.362a1.063,1.063,0,0,1,0,2.126Z" transform="translate(-3629.588 -526.405)"/><rect class="e" width="67.136" height="102.468" rx="12" transform="translate(432.759 355.484)"/><rect class="c" width="61.413" height="95.406" rx="9.219" transform="translate(435.62 359.015)"/><path class="f" d="M5020.095,795.121h-15.756a1.832,1.832,0,1,1,0-3.664h15.756a1.832,1.832,0,1,1,0,3.664Z" transform="translate(-4545.138 -382.363)"/><path class="f" d="M5007.183,831.573h-21.526a1.832,1.832,0,0,1,0-3.664h21.526a1.832,1.832,0,0,1,0,3.664Z" transform="translate(-4529.342 -413.186)"/><path class="f" d="M4942.389,916.226h-52.362a1.063,1.063,0,0,1,0-2.126h52.362a1.063,1.063,0,1,1,0,2.126Z" transform="translate(-4449.13 -486.067)"/><path class="f" d="M4942.389,948.222h-52.362a1.063,1.063,0,0,1,0-2.126h52.362a1.063,1.063,0,1,1,0,2.126Z" transform="translate(-4449.13 -513.122)"/><path class="f" d="M4942.389,980.218h-52.362a1.063,1.063,0,0,1,0-2.126h52.362a1.063,1.063,0,1,1,0,2.126Z" transform="translate(-4449.13 -540.177)"/><path class="g" d="M4311.877,544.189H4205.926l7.495-97.24H4315.7Z" transform="translate(-3871.571 -91.056)"/><rect class="e" width="91.697" height="132.331" rx="17" transform="translate(346.378 333.708)"/><rect class="c" width="83.881" height="122.912" rx="13.029" transform="translate(350.286 338.418)"/><path class="f" d="M4480.238,793.121h-39.144a2.5,2.5,0,1,1,0-5h39.144a2.5,2.5,0,1,1,0,5Z" transform="translate(-4068.307 -379.538)"/><path class="f" d="M4502.039,842.909h-29.4a2.5,2.5,0,1,1,0-5h29.4a2.5,2.5,0,1,1,0,5Z" transform="translate(-4094.979 -421.637)"/><path class="f" d="M4413.541,946.481h-71.519a1.452,1.452,0,1,1,0-2.9h71.519a1.452,1.452,0,1,1,0,2.9Z" transform="translate(-3985.422 -510.992)"/><path class="f" d="M4413.541,990.183h-71.519a1.452,1.452,0,1,1,0-2.9h71.519a1.452,1.452,0,1,1,0,2.9Z" transform="translate(-3985.422 -547.945)"/><path class="f" d="M4413.541,1033.884h-71.519a1.452,1.452,0,1,1,0-2.9h71.519a1.452,1.452,0,1,1,0,2.9Z" transform="translate(-3985.422 -584.897)"/><rect class="h" width="120.228" height="4.48" rx="2.24" transform="translate(465.503 462.782)"/><g transform="translate(512.999 386.232)"><path class="i" d="M5933.729,705.34c1.594,5.621-2.3,11.413-6.589,12.63s-7.351-2.6-8.945-8.223.59-11.164,4.88-12.381S5932.135,699.719,5933.729,705.34Z" transform="translate(-5831.979 -688.832)"/><path class="i" d="M5838.7,1455.608s10.993,17.074,12.479,17.817,5.2.928,3.8,3.712-1.948,13.734-3.248,14.291-12.435,1.856-10.765,0,2.7-.928,3.541-4.269,2.027-9.651.449-10.95-11.228-12.992-11.228-12.992Z" transform="translate(-5761.004 -1330.184)"/><path class="i" d="M5385.122,1503.091s-13.364,22.025-15.838,24-10.641,4.949-3.959,5.445,9.9-2.227,14.105-3.465,9.4-1.98,7.425-5.2-1.158-10.24,3.11-14.7S5385.122,1503.091,5385.122,1503.091Z" transform="translate(-5362.752 -1370.334)"/><path class="j" d="M5544.728,1172.271s-33.082-.865-46.2,9.9c-7.672,11.631-26.23,45.949-27.673,49.731.99.99,6.558,2.776,9.033,2.529,7.3-8.7,16.95-16.23,20.788-23.058,4.729-8.414,6.187-12.621,13.858-13.364s24.995-3.217,30.192-3.217S5544.728,1172.271,5544.728,1172.271Z" transform="translate(-5454.162 -1090.587)"/><path class="h" d="M6058.438,1410.1H6056.7l-12.436-51.88h3.815Z" transform="translate(-5939.024 -1247.836)"/><path class="h" d="M5799.644,1400.059h1.734l14.269-53.714h-3.815Z" transform="translate(-5732.176 -1237.793)"/><path class="e" d="M5715.1,1157.688l-19.234,3.32s-25.559.235-37.241,2.411c-10.629,1.98-12.2,14.057,0,30.687,6.928,9.447,12.785,16.983,24.763,25.479,3.047-2.237,4.213-3.083,5.055-8.466-.866-1.189-3.11-8.628-3.807-10.084-6.626-13.849-15.469-18.886-15.592-20.248,1.484-2.413,39.33,12.577,46.854,3.759C5723.085,1176.127,5715.1,1157.688,5715.1,1157.688Z" transform="translate(-5605.69 -1078.27)"/><path class="k" d="M5942.052,874.528a20.126,20.126,0,0,0-15.05,3.745c-4.216,4.3-8.987,11.385-8.694,23.076.371,14.848-2.3,15.8.486,19.884,11.61,4.795,31.47,25.4,26.793,3.31-3.387-15.992,7.427-27.912-1.3-45.651C5943.581,877.448,5942.693,876.048,5942.052,874.528Z" transform="translate(-5831.841 -838.652)"/><path class="l" d="M5918.307,927.247c-.226,7.74-1.319,10.021-.483,12.448,4.734.483,13.393,2.377,15.557,5.407,2.474,3.464,4.949,3.959,3.794,1.4s-4.207-6.187.495-18.643,6.93-20.87,2.31-29.532Z" transform="translate(-5831.844 -858.963)"/><path class="i" d="M5994.022,789.868a60.426,60.426,0,0,1-3.885-15.68l-8.166,2.413s4.64,10.393.186,14.105a42.641,42.641,0,0,0-3.184,2.907A20.124,20.124,0,0,1,5994.022,789.868Z" transform="translate(-5883.813 -753.993)"/><path class="m" d="M6006.868,778.546c-.484-.43-1.089-.968-1.725-1.529l-6.661,1.968-.015.036a27.18,27.18,0,0,1,2.081,8.135,23.493,23.493,0,0,0,6.644-6.6C6007.057,779.8,6006.95,779.119,6006.868,778.546Z" transform="translate(-5900.296 -756.385)"/><path class="n" d="M5767.6,889.485c-8.411,2.942-7.479,11.8-15.219,24.87-4.006,6.763-7.726,6.662-7.726,6.662a179.241,179.241,0,0,1-20.76-1.314c-7.116-.87-7.567,1.248-2.618,3.018,9.981,3.569,20.339,7.41,28.692,6.482s22.636-22.237,23.373-27.784C5774.356,893.747,5771.832,888,5767.6,889.485Z" transform="translate(-5663.126 -851.287)"/><g transform="translate(70.57 56.504)"><path class="h" d="M5849.3,1065.349q-.784,0-1.607-.02a79.985,79.985,0,0,1-15.271-1.88c-4.377-.89-6.789-1.38-9.6-.039a2.162,2.162,0,1,1-1.864-3.9c4.113-1.965,7.556-1.266,12.321-.3a76.183,76.183,0,0,0,14.516,1.794c7.245.181,11.663-.894,13.9-3.377,2-2.212,2.579-5.929,1.837-11.7-.253-1.974-.508-3.616-.732-5.065-.632-4.087-1.049-6.787-.532-10.962.48-3.876,1.764-9.04,4.737-19.051a2.162,2.162,0,1,1,4.145,1.231c-5.54,18.657-5.259,20.474-4.076,28.122.228,1.474.486,3.145.747,5.175.915,7.114-.011,11.926-2.915,15.145C5861.923,1063.839,5857.071,1065.349,5849.3,1065.349Z" transform="translate(-5819.732 -1009.305)"/></g><path class="l" d="M5386.029,1623.3c-8.867,4.337-13.639,6.822-16.482,6.585-.671-.056-1.228-.125-1.694-.2-3.162,1.869-8.209,4.077-2.53,4.5,6.682.495,9.9-2.227,14.105-3.465s9.4-1.98,7.425-5.2A6.765,6.765,0,0,1,5386.029,1623.3Z" transform="translate(-5362.751 -1471.979)"/><path class="l" d="M5890.849,1573.33c-.216,7.021-1.181,13.977-5.475,15.291a7.216,7.216,0,0,1-3.094.276c-.675.835-1.5.844-2.6,2.073-1.67,1.856,9.465.557,10.765,0s1.856-11.507,3.248-14.291C5894.83,1574.393,5892.53,1573.859,5890.849,1573.33Z" transform="translate(-5799.704 -1429.726)"/><g transform="translate(15.274 48.34)"><path class="o" d="M5503.378,985.265h-28.169a2.163,2.163,0,0,1-1.961-1.251l-11.383-24.5a2.162,2.162,0,0,1,3.921-1.822l10.8,23.249h26.79a2.162,2.162,0,1,1,0,4.324Z" transform="translate(-5461.663 -956.441)"/></g><path class="i" d="M5632.808,1071.441c-5.692-.082-11.337-3.475-14.142-2.98s-11.961,6.847-10.807,7.094,8.415-3.515,8.662-3.572,1.814,2.606,5.691,3.584.028-2.906,12.046.724C5642.073,1078.651,5632.808,1071.441,5632.808,1071.441Z" transform="translate(-5569.924 -1002.781)"/><path class="p" d="M5965.5,832.091l.838,6.739s-7.366.438-11.031,2.5-9.074,8.021-9.074,8.021l4.419-7.608.637-4.867Z" transform="translate(-5856.131 -802.954)"/><path class="p" d="M5815.779,884.771c-5.471-1.025-8,3.877-11.549,11.879s-9.6,17.72-10.807,18.973-20.292,0-20.292,0-.577,5.527,0,6.187,3.877.577,3.877.577,1.32,1.054,2.558,1.888,11.713,2.4,16.58,2.154,9.322-.66,9.981-1.4,13.941-21.2,14.766-28.542S5818.571,885.294,5815.779,884.771Z" transform="translate(-5709.541 -847.384)"/><path class="h" d="M5897.961,647.141c-10.347.495-8.724,16.06-8.724,16.06s2.687.83,8.317-.1a31.07,31.07,0,0,1-.247-5.939,38.917,38.917,0,0,0,1.485,5.568c1.19.546,2.537.062,4.826-.491a10.182,10.182,0,0,0,6.771,7.75c2.513.79,5.173,1.732,8.143.247s1.336-16.663-.24-19.715c-2.367-4.582-6.3-8.682-13.106-6.517A50.534,50.534,0,0,0,5897.961,647.141Z" transform="translate(-5807.855 -643.411)"/><path class="h" d="M6062.753,781.176l4.23,6.179s-4.688,11.714,8.947,17.021c10.679,4.156,9.421,11.479,4.6,18.844s2.887,13.8,2.887,13.8,1.176-8.158,11.552-9.7c14.147-2.1,18.153-21.094,7.586-30.591-8.744-7.859-11.4-1.351-17.323-8.4s-17.092-2.289-17.092-2.289l-4.1-5.972Z" transform="translate(-5954.654 -758.96)"/><g transform="translate(113.105 24.383)"><path class="h" d="M6134.827,833.825a.376.376,0,0,1-.33-.557c3.557-6.5.655-14.377-.806-16.51-.154-.226-.3-.455-.457-.7-1.435-2.239-3.22-5.026-12.745-6.741-2.294-.413-4.152-1.776-6.118-3.22-4.062-2.982-8.666-6.362-18.669-1.758a.376.376,0,1,1-.315-.683c10.405-4.789,15.2-1.27,19.429,1.835,1.9,1.391,3.684,2.7,5.807,3.086,9.849,1.773,11.732,4.713,13.245,7.075.152.238.3.462.444.679,1.529,2.235,4.571,10.487.845,17.3A.376.376,0,0,1,6134.827,833.825Z" transform="translate(-6095.169 -801.308)"/></g><g transform="translate(94.785 13.83)"><path class="h" d="M5987.593,747.688a14.893,14.893,0,0,1-2.2-.177c-3.62-.542-8.476-2.6-8.857-14.152a.376.376,0,1,1,.752-.025c.157,4.762,1.1,8.285,2.808,10.471a7.89,7.89,0,0,0,5.408,2.961c3.35.5,5.571-.117,6.6-1.839a.377.377,0,0,1,.646.386C5991.809,746.893,5990.078,747.688,5987.593,747.688Z" transform="translate(-5976.539 -732.971)"/></g></g><path class="h" d="M5136.866,1241.54h2.78l10.814-82.665h-6.116Z" transform="translate(-4658.75 -693.042)"/><path class="h" d="M5673.282,1241.54h-2.78l-10.814-82.665h6.116Z" transform="translate(-5100.833 -693.042)"/><g transform="translate(647.868 459.464)"><path class="q" d="M6426.188,1242.33c4.81,4.391,2.719,8.783-.836,16.938s-4.183,38.268-4.183,38.268l2.928-.418s-.418-30.949,3.555-39.313,5.646-12.547,9.2-9.828S6426.188,1242.33,6426.188,1242.33Z" transform="translate(-6392.59 -1223.073)"/><path class="r" d="M6435.138,1131.2c.584-2.6,4.053-5.418,8.692-7.807-.69,3.838-2.9,10.114-.613,11.4,3.087,1.736.3-7.026,1.492-11.843a57.3,57.3,0,0,1,14.421-4.73c-.007.018-.013.035-.02.053-2.718,6.9-6.273,9.619-4.81,10.665,1.1.786,4.688-7.185,9.425-11.271,3.556-.19,6.563.293,8.343,1.7,2.75,2.177,4.6,4.109,1.83,10.739a12.429,12.429,0,0,1-6.005,2.177c-6.273.627-9.2.836-4.81,2.928,2.15,1.024,5.755-.058,8.678-.717-.949,1.747-2.114,3.724-3.53,5.976a22.2,22.2,0,0,1-2.938,3.74,9.277,9.277,0,0,1-4.718-.008c-2.927-1.255-10.456-5.228-12.338-3.555-1.842,1.637,13.942,2.674,12.849,6.835-7.65,4.408-16.406,2.311-17.953-1.737C6441.053,1140.315,6433.379,1139.036,6435.138,1131.2Z" transform="translate(-6404.182 -1117.632)"/><path class="q" d="M6409.374,1383.4c-8.364-6.274-16.938-.418-21.33,6.273s-1.254,21.748-1.254,21.748,1.673,0,1.673-.627-4.6-17.775,6.273-25.512c6.8-4.84,11.71-2.509,12.338-.209s-2.719,6.483-2.719,6.483Z" transform="translate(-6362.602 -1340.096)"/><path class="s" d="M6412.363,1314.548c8.364,0,11.083,12.965,8.783,20.493s-5.437,21.539-5.437,21.539l-2.091-2.091s7.946-19.657,6.064-28.439-6.482-10.247-7.319-10.247S6412.363,1314.548,6412.363,1314.548Z" transform="translate(-6384.83 -1284.139)"/><path class="q" d="M6448.334,1437.5a6.058,6.058,0,0,1,2.2-1.85,16.6,16.6,0,0,1-.435,1.792c-1.048,3.43-2.27,8.205-3.289,12.388-.093-.536-.235-1.361-.456-2.635-.052-.3-.093-.627-.121-.973A81.074,81.074,0,0,0,6448.334,1437.5Z" transform="translate(-6413.786 -1386.54)"/><path class="r" d="M6450.957,1383.479c15.892-6.692,7.52-15.874,21.53-9.81a10.4,10.4,0,0,1,3.394,2.99,10.429,10.429,0,0,1-4.439.356c-4.182-.627-2.718,2.719,4.183,3.555a15.487,15.487,0,0,1,3.233.682c3.288,6.314,4.77,14.623-2.188,17.51a15.749,15.749,0,0,1-4.951,1.016c-2.147-1.706.524-11.58-2.786-10.217-3.178,1.309,1,8.464.424,10.267a45.864,45.864,0,0,1-9.928-1.392,4.943,4.943,0,0,1-2.625-3.02c-1.045-4.391,5.855-7.11,6.064-10.874.193-3.46-2.529,7.613-9.739,9.242C6446.608,1390.74,6443.528,1386.607,6450.957,1383.479Z" transform="translate(-6414.121 -1332.456)"/><path class="r" d="M6261.616,1288.415c1.673-3.555-2.719-4.391-2.51-1.673.186,2.409.206,8.264-2.264,9.859a38.764,38.764,0,0,1-14.44-4.8,1.773,1.773,0,0,1,.185-1.09c1.882-3.764,14.01-6.9,10.247-8.156-3-1-8.251,4.9-12.484,7.87-2.542-1.929-4.246-4.228-4.246-6.795,0-3.474,4.221-7.407,9.681-9.286,2.457.248,4.739,1.591,8.3,3.611,5.266,2.984,4.048-1.841-.931-4.7a15,15,0,0,1,11.744,6.446s-.3,1.875,1.686,4.776c5.414,7.914-.834,12.533-8.3,12.233C6258.706,1294.625,6260.46,1290.871,6261.616,1288.415Z" transform="translate(-6236.104 -1249.223)"/><path class="q" d="M6525.478,1395.467c4.09,3.16,8.632,6.855,14.209,9.364s4.461,10.689,4.461,10.689.836-7.064-3.811-9.48-7.714-5.3-11.246-5.855a51.17,51.17,0,0,1-5.484-1.115s1.116-2.231.465-3.067S6525.478,1395.467,6525.478,1395.467Z" transform="translate(-6479.209 -1352.517)"/><path class="q" d="M6501.869,1155.463c-14.964,4-25.932,13.57-27.977,15.893s-2.044,2.974-2.044,2.974l1.58,2.974.744-.372s-1.208-2.51,1.952-5.763a57.2,57.2,0,0,1,16.637-11.99C6497.314,1157.229,6501.869,1155.463,6501.869,1155.463Z" transform="translate(-6435.443 -1149.621)"/><path class="o" d="M10.219,0h0A10.219,10.219,0,0,1,20.439,10.219V20.5a0,0,0,0,1,0,0H0a0,0,0,0,1,0,0V10.219A10.219,10.219,0,0,1,10.219,0Z" transform="translate(38.198 88.671) rotate(180)"/><rect class="c" width="20.439" height="1.439" transform="translate(17.76 70.523)"/><rect class="c" width="20.439" height="0.846" transform="translate(17.76 73.146)"/></g><g transform="translate(266.987 522.507)"><rect class="e" width="8.606" height="7.746" rx="3.873" transform="translate(39.902 7.746) rotate(180)"/><rect class="e" width="8.606" height="7.746" rx="3.873" transform="translate(24.254 7.746) rotate(-180)"/><rect class="e" width="8.606" height="7.746" rx="3.873" transform="translate(8.606 7.746) rotate(180)"/></g><g transform="translate(706.425 379.167)"><path class="e" d="M3.872,0h.861A3.873,3.873,0,0,1,8.606,3.873v0A3.873,3.873,0,0,1,4.733,7.746h-.86A3.873,3.873,0,0,1,0,3.873v0A3.872,3.872,0,0,1,3.872,0Z" transform="translate(7.746 0) rotate(90)"/><path class="e" d="M3.872,0h.861A3.873,3.873,0,0,1,8.606,3.873v0A3.873,3.873,0,0,1,4.733,7.746h-.86A3.873,3.873,0,0,1,0,3.873v0A3.872,3.872,0,0,1,3.872,0Z" transform="translate(7.746 15.648) rotate(90)"/><path class="e" d="M3.873,0h.861A3.873,3.873,0,0,1,8.606,3.873v0A3.873,3.873,0,0,1,4.733,7.746h-.86A3.873,3.873,0,0,1,0,3.873v0A3.873,3.873,0,0,1,3.873,0Z" transform="translate(7.746 31.296) rotate(90)"/></g><g transform="translate(367.294 348.808)"><g transform="translate(6.212 3.278)"><path class="i" d="M4520.715,432.354c-.059-.176-1.527-8.6-1.7-11.883s5.268-3.746,5.268-3.746,4.448-2.4,7.668-1.171a12.981,12.981,0,0,1,6.874,5.873c1.463,2.576-1.288,10.6-1.288,10.6Z" transform="translate(-4510.622 -415.204)"/><path class="e" d="M4464.7,632.971c-.021-.138.375-3.456.39-3.59.741-6.985,9.353-8.95,17.944-8.95,10.095,0,16.943,1.847,18.035,9.106.032.213.615,3.538.586,3.762C4482.946,633.555,4464.7,632.971,4464.7,632.971Z" transform="translate(-4464.7 -588.739)"/><path class="t" d="M4558.7,534.85c-1,1.477-1.733,1.538-2.819,0-.863-1.223-3.746-4.012-3.746-5.422l1.183-14.057a2.57,2.57,0,0,1,2.563-2.563h2.819a2.571,2.571,0,0,1,2.563,2.563l.549,14.057C4561.816,530.837,4559.6,533.525,4558.7,534.85Z" transform="translate(-4538.636 -497.735)"/><path class="u" d="M4559.559,512.808h-2.819a2.57,2.57,0,0,0-2.563,2.563l-1.027,12.47c3.166,1.008,7.44-1.04,9.331-3.3l-.358-9.173A2.571,2.571,0,0,0,4559.559,512.808Z" transform="translate(-4539.491 -497.735)"/><path class="v" d="M4522.872,625.589l4.519,8.354s2.419-1.99,2.654-1.6-.429,5.315-.429,5.315,5.385.073,5.619-.161-1.093-5.349-.547-5.349,2.189,1.483,2.189,1.483l5.046-8.042-1.109-.27-8.269,4.449-8.843-4.351Z" transform="translate(-4513.889 -592.872)"/><path class="l" d="M4556.343,645.25l3.356,2.252-1.041,5.978,4.527-.253-1.131-5.438,2.782-2.54-1.307-1.232h-5.881Z" transform="translate(-4542.191 -608.684)"/><path class="e" d="M4530.922,598.417l-4.151,3.951s4.229,7.522,4.464,7.522,3.59-4.147,3.59-4.147l2.148-.038,3.394,3.561,3.943-6.976-4.021-4.263s-3.435,6.634-4.059,6.79-.628.234-1.134-.156S4530.922,598.417,4530.922,598.417Z" transform="translate(-4517.186 -569.794)"/><ellipse class="t" cx="8.522" cy="11.612" rx="8.522" ry="11.612" transform="translate(10.137 3.603)"/><path class="t" d="M4511.278,500.382c.8,1.678.537,3.469-.583,4s-2.672-.4-3.469-2.076-.536-3.469.583-4S4510.48,498.7,4511.278,500.382Z" transform="translate(-4500.269 -485.346)"/><path class="t" d="M4630.042,500.382c-.8,1.678-.536,3.469.583,4s2.672-.4,3.469-2.076.536-3.469-.583-4S4630.839,498.7,4630.042,500.382Z" transform="translate(-4604.119 -485.346)"/><path class="i" d="M4533.625,436.446c3.512-2.458,5.092-2.049,7.727,1.99s5.794,4.11,5.794,4.11l.41-4.188s-3.924-7.59-9.191-6.595-8.263,5.736-8.263,5.736-.256,8.887.479,9.19.819-2.868,1.346-3.512-.527-3.688.175-5.093S4533.625,436.446,4533.625,436.446Z" transform="translate(-4519.966 -429.13)"/><path class="i" d="M4626.306,492.146c1.226,1.343.761,6.673,1.405,6.614s.878-5.093.7-5.619S4626.306,492.146,4626.306,492.146Z" transform="translate(-4601.35 -480.264)"/></g><g class="w" transform="translate(-0.294 0.192)"><rect class="aa" width="50" height="48" rx="7"/><rect class="ab" x="1" y="1" width="48" height="46" rx="6"/></g></g><g transform="translate(296.085 366.336)"><g transform="translate(8.076 6.345)"><path class="e" d="M4015.654,691.9c2.312-4.973,6.224-6.565,12.648-6.565,7.649,0,11.621,2.771,12.747,6.806C4027.351,692.331,4015.654,691.9,4015.654,691.9Z" transform="translate(-4015.654 -660.93)"/><path class="l" d="M4027.326,527.505c-3.238.909-3.1,2.728-4.175,4.417s-3.424,2.815-3.706,3.94.722,3.471-.469,4.785-1.6,1.97-1.126,3.284,1.5,3.378,1.595,3.659a5.258,5.258,0,0,0,3,2.533,33.839,33.839,0,0,1,6.1,1.407c1.5.657,6.328-.841,9.007-.747s4.5-1.88,4.315-3.194,1.976-3.94,1.97-6.192c-.005-2.418-2.814-4.222-3.565-5.817s.094-4.41-2.721-6.077c-1.779-1.054-3-.96-4.41-1.429A10.439,10.439,0,0,0,4027.326,527.505Z" transform="translate(-4017.35 -527.283)"/><path class="i" d="M4084.2,622.68c-.732,1.081-1.27,1.126-2.064,0-.632-.9-1.876-2.929-1.876-3.961v-10.3a1.882,1.882,0,0,1,1.876-1.876h2.064a1.882,1.882,0,0,1,1.876,1.876v10.3C4086.076,619.751,4084.856,621.71,4084.2,622.68Z" transform="translate(-4070.282 -594.302)"/><path class="x" d="M4084.2,606.542h-2.064a1.882,1.882,0,0,0-1.876,1.876v9.19c2.317.738,4.433-.729,5.817-2.381v-6.809A1.882,1.882,0,0,0,4084.2,606.542Z" transform="translate(-4070.282 -594.302)"/><ellipse class="i" cx="6.239" cy="8.502" rx="6.239" ry="8.502" transform="translate(6.646 3.842)"/><path class="l" d="M4064.5,545.028c-3.94,6.661-9.758,6-9.758,6s.141-8.819,4.762-9.289,7.342,1.385,8.28,4.446a7.549,7.549,0,0,1,0,5.077,8.1,8.1,0,0,1-2.251-3.049A21.93,21.93,0,0,1,4064.5,545.028Z" transform="translate(-4048.705 -539.45)"/><ellipse class="i" cx="1.642" cy="2.463" rx="1.642" ry="2.463" transform="translate(3.262 11.397) rotate(-25.405)"/><path class="i" d="M4131.687,597.445c-.584,1.229-.393,2.54.427,2.929s1.956-.292,2.539-1.52.393-2.54-.426-2.929S4132.27,596.216,4131.687,597.445Z" transform="translate(-4113.482 -585.232)"/></g><g class="w" transform="translate(-0.085 -0.336)"><rect class="aa" width="42" height="39" rx="5"/><rect class="ab" x="1" y="1" width="40" height="37" rx="4"/></g></g><g transform="translate(446.17 366.336)"><g transform="translate(8.759 7.006)"><path class="e" d="M5003.757,603.584c0,4.929,2.968,12.881,9.968,12.626s8.549-7.836,8.82-9.975S5003.757,603.584,5003.757,603.584Z" transform="translate(-5000.84 -592.463)"/><path class="l" d="M4984.868,691.9c2.312-4.973,6.224-6.565,12.648-6.565,7.649,0,11.622,2.771,12.748,6.806C4996.564,692.331,4984.868,691.9,4984.868,691.9Z" transform="translate(-4984.868 -661.592)"/><path class="y" d="M5053.413,622.68c-.732,1.081-1.269,1.126-2.064,0-.632-.9-1.876-2.929-1.876-3.961v-10.3a1.882,1.882,0,0,1,1.876-1.876h2.064a1.882,1.882,0,0,1,1.876,1.876v10.3C5055.29,619.751,5054.07,621.71,5053.413,622.68Z" transform="translate(-5039.496 -594.964)"/><path class="z" d="M5053.413,606.542h-2.064a1.882,1.882,0,0,0-1.876,1.876v9.19c2.317.738,4.433-.729,5.817-2.381v-6.809A1.882,1.882,0,0,0,5053.413,606.542Z" transform="translate(-5039.496 -594.964)"/><path class="y" d="M6.239,0c3.446,0,6.239,3.806,6.239,8.5S9.685,17,6.239,17,0,13.2,0,8.5,2.793,0,6.239,0Z" transform="translate(6.646 3.181)"/><path class="e" d="M5017.039,536.787c-.741,2.615-2.366,2.584-4.632,3.443s-3.348,1.722-4.089,3.4c-.945,2.133.429,8.351.429,8.351s-5.737-4.293-5.073-11.044,4.644-9.366,8.39-9.366,5.171,2.283,5.171,2.283a5.609,5.609,0,0,1,3.882,2.244c2.537,3,1.756,10.3,0,12.917s-2.926,3.434-2.887,3.317,1.639-6.121.78-9.834A23.709,23.709,0,0,0,5017.039,536.787Z" transform="translate(-5000.725 -531.567)"/></g><g class="w" transform="translate(-0.17 -0.336)"><rect class="aa" width="42" height="39" rx="5"/><rect class="ab" x="1" y="1" width="40" height="37" rx="4"/></g></g></g></svg>